/* XPM */
static char *result[] = {
/* columns rows colors chars-per-pixel */
"42 42 7 1 ",
"  c black",
". c #181818",
"X c #2A2A2A",
"o c gray23",
"O c gray27",
"+ c gray32",
"@ c #000000"
/* pixels */
"@@@@@@@@@            @@@@@@@@@@@@@@@@@@@@@",
"@@@@@@@@@            @@@@@@@@@@@@@@@@@@@@@",
"@@@@@@@@@            @@@@@@@@@@@@@@@@@@@@@",
"@@@@@@@@@   +++OOOXXX         @@@@@@@@@@@@",
"@@@@@@@@@   +++OOOXXX         @@@@@@@@@@@@",
"@@@@@@@@@   +++OOOXXX         @@@@@@@@@@@@",
"@@@@@@@@@@@@   OOOOOOXXXXXX...   @@@@@@@@@",
"@@@@@@@@@@@@   OOOOOOXXXXXX...   @@@@@@@@@",
"@@@@@@@@@@@@   OOOOOOXXXXXX...   @@@@@@@@@",
"@@@@@@@@@   OOO   OOOoooXXXXXX...   @@@@@@",
"@@@@@@@@@   OOO   OOOoooXXXXXX...   @@@@@@",
"@@@@@@@@@   OOO   OOOoooXXXXXX...   @@@@@@",
"@@@@@@   oooOOOoooOOOoooXXXXXX...   @@@@@@",
"@@@@@@   oooOOOoooOOOoooXXXXXX...   @@@@@@",
"@@@@@@   oooOOOoooOOOoooXXXXXX...   @@@@@@",
"@@@   +++OOOOOOoooooo   XXXXXX...   @@@@@@",
"@@@   +++OOOOOOoooooo   XXXXXX...   @@@@@@",
"@@@   +++OOOOOOoooooo   XXXXXX...   @@@@@@",
"@@@   +++OOO   +++   oooXXXXXX...   @@@@@@",
"@@@   +++OOO   +++   oooXXXXXX...   @@@@@@",
"@@@   +++OOO   +++   oooXXXXXX...   @@@@@@",
"@@@@@@      @@@@@@   oooXXXXXX...   @@@@@@",
"@@@@@@      @@@@@@   oooXXXXXX...   @@@@@@",
"@@@@@@      @@@@@@   oooXXXXXX...   @@@@@@",
"@@@@@@@@@@@@@@@   ooooooXXXXXX...   @@@@@@",
"@@@@@@@@@@@@@@@   ooooooXXXXXX...   @@@@@@",
"@@@@@@@@@@@@@@@   ooooooXXXXXX...   @@@@@@",
"@@@@@@@@@@@@   ooooooXXXXXX...   @@@@@@@@@",
"@@@@@@@@@@@@   ooooooXXXXXX...   @@@@@@@@@",
"@@@@@@@@@@@@   ooooooXXXXXX...   @@@@@@@@@",
"@@@@@@@@@   OOOoooXXXXXX......   @@@@@@@@@",
"@@@@@@@@@   OOOoooXXXXXX......   @@@@@@@@@",
"@@@@@@@@@   OOOoooXXXXXX......   @@@@@@@@@",
"@@@@@@@@@                        @@@@@@@@@",
"@@@@@@@@@                        @@@@@@@@@",
"@@@@@@@@@                        @@@@@@@@@",
"@@@@@@   OOOoooXXXXXXXXX.........   @@@@@@",
"@@@@@@   OOOoooXXXXXXXXX.........   @@@@@@",
"@@@@@@   OOOoooXXXXXXXXX.........   @@@@@@",
"@@@@@@                              @@@@@@",
"@@@@@@                              @@@@@@",
"@@@@@@                              @@@@@@"
};
