/* XPM */
static char *result[] = {
/* columns rows colors chars-per-pixel */
"42 42 7 1 ",
"  c black",
". c #181818",
"X c #2A2A2A",
"o c gray23",
"O c gray29",
"+ c #5A5A5A",
"@ c #FFFFFF",
/* pixels */
"@@@@@@@@@@@@@@@@@@      @@@@@@@@@@@@@@@@@@",
"@@@@@@@@@@@@@@@@@@      @@@@@@@@@@@@@@@@@@",
"@@@@@@@@@@@@@@@@@@      @@@@@@@@@@@@@@@@@@",
"@@@@@@@@@@@@@@@   XXX...   @@@@@@@@@@@@@@@",
"@@@@@@@@@@@@@@@   XXX...   @@@@@@@@@@@@@@@",
"@@@@@@@@@@@@@@@   XXX...   @@@@@@@@@@@@@@@",
"@@@@@@@@@@@@@@@   OOO...   @@@@@@@@@@@@@@@",
"@@@@@@@@@@@@@@@   OOO...   @@@@@@@@@@@@@@@",
"@@@@@@@@@@@@@@@   OOO...   @@@@@@@@@@@@@@@",
"@@@@@@@@@@@@@@@@@@      @@@@@@@@@@@@@@@@@@",
"@@@@@@@@@@@@@@@@@@      @@@@@@@@@@@@@@@@@@",
"@@@@@@@@@@@@@@@@@@      @@@@@@@@@@@@@@@@@@",
"@@@@@@@@@@@@@@@   ooo...   @@@@@@@@@@@@@@@",
"@@@@@@@@@@@@@@@   ooo...   @@@@@@@@@@@@@@@",
"@@@@@@@@@@@@@@@   ooo...   @@@@@@@@@@@@@@@",
"@@@@@@@@@@@@   OOOOOOXXX@@@   @@@@@@@@@@@@",
"@@@@@@@@@@@@   OOOOOOXXX@@@   @@@@@@@@@@@@",
"@@@@@@@@@@@@   OOOOOOXXX@@@   @@@@@@@@@@@@",
"@@@@@@@@@   OOOOOOooo@@@   ...   @@@@@@@@@",
"@@@@@@@@@   OOOOOOooo@@@   ...   @@@@@@@@@",
"@@@@@@@@@   OOOOOOooo@@@   ...   @@@@@@@@@",
"@@@@@@@@@   OOOOOOooo   XXX...   @@@@@@@@@",
"@@@@@@@@@   OOOOOOooo   XXX...   @@@@@@@@@",
"@@@@@@@@@   OOOOOOooo   XXX...   @@@@@@@@@",
"@@@@@@@@@   OOOooooooXXXXXX...   @@@@@@@@@",
"@@@@@@@@@   OOOooooooXXXXXX...   @@@@@@@@@",
"@@@@@@@@@   OOOooooooXXXXXX...   @@@@@@@@@",
"@@@@@@@@@   +++ooooooXXXXXX...   @@@@@@@@@",
"@@@@@@@@@   +++ooooooXXXXXX...   @@@@@@@@@",
"@@@@@@@@@   +++ooooooXXXXXX...   @@@@@@@@@",
"@@@@@@@@@@@@   OOOoooXXXXXX   @@@@@@@@@@@@",
"@@@@@@@@@@@@   OOOoooXXXXXX   @@@@@@@@@@@@",
"@@@@@@@@@@@@   OOOoooXXXXXX   @@@@@@@@@@@@",
"@@@@@@@@@                        @@@@@@@@@",
"@@@@@@@@@                        @@@@@@@@@",
"@@@@@@@@@                        @@@@@@@@@",
"@@@@@@   +++OOOooooooXXX.........   @@@@@@",
"@@@@@@   +++OOOooooooXXX.........   @@@@@@",
"@@@@@@   +++OOOooooooXXX.........   @@@@@@",
"@@@@@@                              @@@@@@",
"@@@@@@                              @@@@@@",
"@@@@@@                              @@@@@@"
};
