/* XPM */
static char *result[] = {
/* columns rows colors chars-per-pixel */
"42 42 7 1 ",
"  c black",
". c #181818",
"X c #2A2A2A",
"o c gray23",
"O c gray27",
"+ c gray32",
"@ c #000000"
/* pixels */
"@@@@@@@@@@@@@@@@@@@@@@@@@@@@@@@@@@@@@@@@@@",
"@@@@@@@@@@@@@@@@@@@@@@@@@@@@@@@@@@@@@@@@@@",
"@@@@@@@@@@@@@@@@@@@@@@@@@@@@@@@@@@@@@@@@@@",
"@@@@@@@@@@@@@@@@@@@@@@@@@@@@@@@@@@@@@@@@@@",
"@@@@@@@@@@@@@@@@@@@@@@@@@@@@@@@@@@@@@@@@@@",
"@@@@@@@@@@@@@@@@@@@@@@@@@@@@@@@@@@@@@@@@@@",
"@@@@@@@@@@@@@@@            @@@@@@@@@@@@@@@",
"@@@@@@@@@@@@@@@            @@@@@@@@@@@@@@@",
"@@@@@@@@@@@@@@@            @@@@@@@@@@@@@@@",
"@@@@@@@@@@@@   +++OOOOOO...   @@@@@@@@@@@@",
"@@@@@@@@@@@@   +++OOOOOO...   @@@@@@@@@@@@",
"@@@@@@@@@@@@   +++OOOOOO...   @@@@@@@@@@@@",
"@@@@@@@@@@@@   OOOXXXXXX...   @@@@@@@@@@@@",
"@@@@@@@@@@@@   OOOXXXXXX...   @@@@@@@@@@@@",
"@@@@@@@@@@@@   OOOXXXXXX...   @@@@@@@@@@@@",
"@@@@@@@@@@@@   ooooooXXX...   @@@@@@@@@@@@",
"@@@@@@@@@@@@   ooooooXXX...   @@@@@@@@@@@@",
"@@@@@@@@@@@@   ooooooXXX...   @@@@@@@@@@@@",
"@@@@@@@@@@@@@@@   oooXXX   @@@@@@@@@@@@@@@",
"@@@@@@@@@@@@@@@   oooXXX   @@@@@@@@@@@@@@@",
"@@@@@@@@@@@@@@@   oooXXX   @@@@@@@@@@@@@@@",
"@@@@@@@@@@@@   +++oooXXX...   @@@@@@@@@@@@",
"@@@@@@@@@@@@   +++oooXXX...   @@@@@@@@@@@@",
"@@@@@@@@@@@@   +++oooXXX...   @@@@@@@@@@@@",
"@@@@@@@@@@@@   +++oooXXX...   @@@@@@@@@@@@",
"@@@@@@@@@@@@   +++oooXXX...   @@@@@@@@@@@@",
"@@@@@@@@@@@@   +++oooXXX...   @@@@@@@@@@@@",
"@@@@@@@@@@@@@@@   XXXXXX   @@@@@@@@@@@@@@@",
"@@@@@@@@@@@@@@@   XXXXXX   @@@@@@@@@@@@@@@",
"@@@@@@@@@@@@@@@   XXXXXX   @@@@@@@@@@@@@@@",
"@@@@@@@@@@@@   OOOOOOXXX...   @@@@@@@@@@@@",
"@@@@@@@@@@@@   OOOOOOXXX...   @@@@@@@@@@@@",
"@@@@@@@@@@@@   OOOOOOXXX...   @@@@@@@@@@@@",
"@@@@@@@@@   +++OOOXXXXXXXXX...   @@@@@@@@@",
"@@@@@@@@@   +++OOOXXXXXXXXX...   @@@@@@@@@",
"@@@@@@@@@   +++OOOXXXXXXXXX...   @@@@@@@@@",
"@@@@@@@@@   OOOXXXXXXXXXXXX...   @@@@@@@@@",
"@@@@@@@@@   OOOXXXXXXXXXXXX...   @@@@@@@@@",
"@@@@@@@@@   OOOXXXXXXXXXXXX...   @@@@@@@@@",
"@@@@@@@@@                        @@@@@@@@@",
"@@@@@@@@@                        @@@@@@@@@",
"@@@@@@@@@                        @@@@@@@@@"
};
