/* XPM */
static char *result[] = {
/* columns rows colors chars-per-pixel */
"42 42 7 1 ",
"  c black",
". c #181818",
"X c #2A2A2A",
"o c gray23",
"O c gray29",
"+ c #5A5A5A",
"@ c #FFFFFF"
/* pixels */
"@@@@@@@@@@@@@@@@@@      @@@@@@@@@@@@@@@@@@",
"@@@@@@@@@@@@@@@@@@      @@@@@@@@@@@@@@@@@@",
"@@@@@@@@@@@@@@@@@@      @@@@@@@@@@@@@@@@@@",
"@@@@@@@@@@@@@@@   XXX...   @@@@@@@@@@@@@@@",
"@@@@@@@@@@@@@@@   XXX...   @@@@@@@@@@@@@@@",
"@@@@@@@@@@@@@@@   XXX...   @@@@@@@@@@@@@@@",
"@@@@@@@@@@@@@@@   ooo...   @@@@@@@@@@@@@@@",
"@@@@@@@@@@@@@@@   ooo...   @@@@@@@@@@@@@@@",
"@@@@@@@@@@@@@@@   ooo...   @@@@@@@@@@@@@@@",
"@@@@@@@@@@@@@@@@@@      @@@@@@@@@@@@@@@@@@",
"@@@@@@@@@@@@@@@@@@      @@@@@@@@@@@@@@@@@@",
"@@@@@@@@@@@@@@@@@@      @@@@@@@@@@@@@@@@@@",
"   @@@@@@@@@@@@@@@@@@@@@@@@@@@@@@@@@@@@   ",
"   @@@@@@@@@@@@@@@@@@@@@@@@@@@@@@@@@@@@   ",
"   @@@@@@@@@@@@@@@@@@@@@@@@@@@@@@@@@@@@   ",
"@@@      @@@@@@@@@      @@@@@@@@@      @@@",
"@@@      @@@@@@@@@      @@@@@@@@@      @@@",
"@@@      @@@@@@@@@      @@@@@@@@@      @@@",
"@@@   OOO   @@@   oooXXX   @@@   ...   @@@",
"@@@   OOO   @@@   oooXXX   @@@   ...   @@@",
"@@@   OOO   @@@   oooXXX   @@@   ...   @@@",
"@@@   +++OOO   ooooooXXXXXX   ......   @@@",
"@@@   +++OOO   ooooooXXXXXX   ......   @@@",
"@@@   +++OOO   ooooooXXXXXX   ......   @@@",
"@@@@@@   OOOoooXXXXXXXXXXXX......   @@@@@@",
"@@@@@@   OOOoooXXXXXXXXXXXX......   @@@@@@",
"@@@@@@   OOOoooXXXXXXXXXXXX......   @@@@@@",
"@@@@@@   OOOoooXXXXXXXXX.........   @@@@@@",
"@@@@@@   OOOoooXXXXXXXXX.........   @@@@@@",
"@@@@@@   OOOoooXXXXXXXXX.........   @@@@@@",
"@@@@@@@@@   oooXXXXXX.........   @@@@@@@@@",
"@@@@@@@@@   oooXXXXXX.........   @@@@@@@@@",
"@@@@@@@@@   oooXXXXXX.........   @@@@@@@@@",
"@@@@@@@@@                        @@@@@@@@@",
"@@@@@@@@@                        @@@@@@@@@",
"@@@@@@@@@                        @@@@@@@@@",
"@@@@@@   +++oooXXXXXXXXX.........   @@@@@@",
"@@@@@@   +++oooXXXXXXXXX.........   @@@@@@",
"@@@@@@   +++oooXXXXXXXXX.........   @@@@@@",
"@@@@@@                              @@@@@@",
"@@@@@@                              @@@@@@",
"@@@@@@                              @@@@@@"
};
