/* XPM */
static char *result[] = {
/* columns rows colors chars-per-pixel */
"42 42 9 1 ",
"  c black",
". c #101010",
"X c gray8",
"o c gray14",
"O c gray20",
"+ c #3F3F3F",
"@ c gray29",
"# c #565656",
"$ c #000000"
/* pixels */
"$$$$$$         $$$                  $$$$$$",
"$$$$$$         $$$                  $$$$$$",
"$$$$$$         $$$                  $$$$$$",
"$$$$$$   ###   $$$   OOOOOOooo...   $$$$$$",
"$$$$$$   ###   $$$   OOOOOOooo...   $$$$$$",
"$$$$$$   ###   $$$   OOOOOOooo...   $$$$$$",
"$$$$$$   ###         OOOOOOooo...   $$$$$$",
"$$$$$$   ###         OOOOOOooo...   $$$$$$",
"$$$$$$   ###         OOOOOOooo...   $$$$$$",
"$$$$$$   @@@+++++++++OOOOOOooo...   $$$$$$",
"$$$$$$   @@@+++++++++OOOOOOooo...   $$$$$$",
"$$$$$$   @@@+++++++++OOOOOOooo...   $$$$$$",
"$$$$$$                              $$$$$$",
"$$$$$$                              $$$$$$",
"$$$$$$                              $$$$$$",
"$$$$$$$$$   @@@+++OOOOOOoooXXX   $$$$$$$$$",
"$$$$$$$$$   @@@+++OOOOOOoooXXX   $$$$$$$$$",
"$$$$$$$$$   @@@+++OOOOOOoooXXX   $$$$$$$$$",
"$$$$$$$$$$$$                  $$$$$$$$$$$$",
"$$$$$$$$$$$$                  $$$$$$$$$$$$",
"$$$$$$$$$$$$                  $$$$$$$$$$$$",
"$$$$$$$$$$$$   OOOOOOoooXXX   $$$$$$$$$$$$",
"$$$$$$$$$$$$   OOOOOOoooXXX   $$$$$$$$$$$$",
"$$$$$$$$$$$$   OOOOOOoooXXX   $$$$$$$$$$$$",
"$$$$$$$$$$$$   OOOOOOoooXXX   $$$$$$$$$$$$",
"$$$$$$$$$$$$   OOOOOOoooXXX   $$$$$$$$$$$$",
"$$$$$$$$$$$$   OOOOOOoooXXX   $$$$$$$$$$$$",
"$$$$$$$$$$$$   OOOOOOoooXXX   $$$$$$$$$$$$",
"$$$$$$$$$$$$   OOOOOOoooXXX   $$$$$$$$$$$$",
"$$$$$$$$$$$$   OOOOOOoooXXX   $$$$$$$$$$$$",
"$$$$$$$$$   ++++++OOOOOOoooXXX   $$$$$$$$$",
"$$$$$$$$$   ++++++OOOOOOoooXXX   $$$$$$$$$",
"$$$$$$$$$   ++++++OOOOOOoooXXX   $$$$$$$$$",
"$$$$$$   ###@@@@@@+++OOOOOOoooXXX   $$$$$$",
"$$$$$$   ###@@@@@@+++OOOOOOoooXXX   $$$$$$",
"$$$$$$   ###@@@@@@+++OOOOOOoooXXX   $$$$$$",
"$$$   ######@@@@@@++++++OOOOOOoooXXX   $$$",
"$$$   ######@@@@@@++++++OOOOOOoooXXX   $$$",
"$$$   ######@@@@@@++++++OOOOOOoooXXX   $$$",
"$$$                                    $$$",
"$$$                                    $$$",
"$$$                                    $$$"
};
