/* XPM */
static char *result[] = {
/* columns rows colors chars-per-pixel */
"42 42 7 1 ",
"  c black",
". c #181818",
"X c #2A2A2A",
"o c gray23",
"O c gray29",
"+ c #5A5A5A",
"@ c #000000",
/* pixels */
"@@@@@@@@@@@@@@@@@@      @@@@@@@@@@@@@@@@@@",
"@@@@@@@@@@@@@@@@@@      @@@@@@@@@@@@@@@@@@",
"@@@@@@@@@@@@@@@@@@      @@@@@@@@@@@@@@@@@@",
"@@@@@@@@@@@@@@@   XXX...   @@@@@@@@@@@@@@@",
"@@@@@@@@@@@@@@@   XXX...   @@@@@@@@@@@@@@@",
"@@@@@@@@@@@@@@@   XXX...   @@@@@@@@@@@@@@@",
"@@@@@@@@@@@@@@@   OOO...   @@@@@@@@@@@@@@@",
"@@@@@@@@@@@@@@@   OOO...   @@@@@@@@@@@@@@@",
"@@@@@@@@@@@@@@@   OOO...   @@@@@@@@@@@@@@@",
"@@@@@@         @@@      @@@         @@@@@@",
"@@@@@@         @@@      @@@         @@@@@@",
"@@@@@@         @@@      @@@         @@@@@@",
"@@@   XXX+++OOO   @@@@@@   XXX......   @@@",
"@@@   XXX+++OOO   @@@@@@   XXX......   @@@",
"@@@   XXX+++OOO   @@@@@@   XXX......   @@@",
"@@@   +++@@@   @@@      ooo   @@@...   @@@",
"@@@   +++@@@   @@@      ooo   @@@...   @@@",
"@@@   +++@@@   @@@      ooo   @@@...   @@@",
"@@@   +++@@@@@@   oooooo   @@@@@@...   @@@",
"@@@   +++@@@@@@   oooooo   @@@@@@...   @@@",
"@@@   +++@@@@@@   oooooo   @@@@@@...   @@@",
"@@@   OOO   @@@@@@oooXXX@@@@@@   ...   @@@",
"@@@   OOO   @@@@@@oooXXX@@@@@@   ...   @@@",
"@@@   OOO   @@@@@@oooXXX@@@@@@   ...   @@@",
"@@@@@@   OOO      oooXXX      ...   @@@@@@",
"@@@@@@   OOO      oooXXX      ...   @@@@@@",
"@@@@@@   OOO      oooXXX      ...   @@@@@@",
"@@@@@@   ooooooXXXoooXXXXXX......   @@@@@@",
"@@@@@@   ooooooXXXoooXXXXXX......   @@@@@@",
"@@@@@@   ooooooXXXoooXXXXXX......   @@@@@@",
"@@@@@@@@@   ooooooXXXXXX......   @@@@@@@@@",
"@@@@@@@@@   ooooooXXXXXX......   @@@@@@@@@",
"@@@@@@@@@   ooooooXXXXXX......   @@@@@@@@@",
"@@@@@@@@@                        @@@@@@@@@",
"@@@@@@@@@                        @@@@@@@@@",
"@@@@@@@@@                        @@@@@@@@@",
"@@@@@@   +++OOOXXXXXXXXX.........   @@@@@@",
"@@@@@@   +++OOOXXXXXXXXX.........   @@@@@@",
"@@@@@@   +++OOOXXXXXXXXX.........   @@@@@@",
"@@@@@@                              @@@@@@",
"@@@@@@                              @@@@@@",
"@@@@@@                              @@@@@@"
};
