/* XPM */
static char *result[] = {
/* columns rows colors chars-per-pixel */
"42 42 6 1 ",
"  c black",
". c gray54",
"X c gray66",
"o c gray69",
"O c gray78",
"+ c #FFFFFF",
/* pixels */
"+++++++++            +++++++++++++++++++++",
"+++++++++            +++++++++++++++++++++",
"+++++++++            +++++++++++++++++++++",
"+++++++++   OOOOOOXXX         ++++++++++++",
"+++++++++   OOOOOOXXX         ++++++++++++",
"+++++++++   OOOOOOXXX         ++++++++++++",
"++++++++++++   OOOOOOXXXXXX...   +++++++++",
"++++++++++++   OOOOOOXXXXXX...   +++++++++",
"++++++++++++   OOOOOOXXXXXX...   +++++++++",
"+++++++++   OOO   OOOoooXXXXXX...   ++++++",
"+++++++++   OOO   OOOoooXXXXXX...   ++++++",
"+++++++++   OOO   OOOoooXXXXXX...   ++++++",
"++++++   OOOOOOOOOOOOoooXXXXXX...   ++++++",
"++++++   OOOOOOOOOOOOoooXXXXXX...   ++++++",
"++++++   OOOOOOOOOOOOoooXXXXXX...   ++++++",
"+++   OOOOOOOOOOOOOOO   XXXXXX...   ++++++",
"+++   OOOOOOOOOOOOOOO   XXXXXX...   ++++++",
"+++   OOOOOOOOOOOOOOO   XXXXXX...   ++++++",
"+++   OOOOOO         oooXXXXXX...   ++++++",
"+++   OOOOOO         oooXXXXXX...   ++++++",
"+++   OOOOOO         oooXXXXXX...   ++++++",
"++++++      ++++++   oooXXXXXX...   ++++++",
"++++++      ++++++   oooXXXXXX...   ++++++",
"++++++      ++++++   oooXXXXXX...   ++++++",
"+++++++++++++++   ooooooXXXXXX...   ++++++",
"+++++++++++++++   ooooooXXXXXX...   ++++++",
"+++++++++++++++   ooooooXXXXXX...   ++++++",
"++++++++++++   ooooooXXXXXX...   +++++++++",
"++++++++++++   ooooooXXXXXX...   +++++++++",
"++++++++++++   ooooooXXXXXX...   +++++++++",
"+++++++++   OOOoooXXXXXX......   +++++++++",
"+++++++++   OOOoooXXXXXX......   +++++++++",
"+++++++++   OOOoooXXXXXX......   +++++++++",
"+++++++++                        +++++++++",
"+++++++++                        +++++++++",
"+++++++++                        +++++++++",
"++++++   OOOoooXXXXXXXXX.........   ++++++",
"++++++   OOOoooXXXXXXXXX.........   ++++++",
"++++++   OOOoooXXXXXXXXX.........   ++++++",
"++++++                              ++++++",
"++++++                              ++++++",
"++++++                              ++++++"
};
