/* XPM */
static char *result[] = {
/* columns rows colors chars-per-pixel */
"42 42 5 1 ",
"  c black",
". c gray54",
"X c gray66",
"o c gray78",
"O c #FFFFFF",
/* pixels */
"OOOOOOOOOOOOOOOOOO      OOOOOOOOOOOOOOOOOO",
"OOOOOOOOOOOOOOOOOO      OOOOOOOOOOOOOOOOOO",
"OOOOOOOOOOOOOOOOOO      OOOOOOOOOOOOOOOOOO",
"OOOOOOOOOOOOOOO   XXX...   OOOOOOOOOOOOOOO",
"OOOOOOOOOOOOOOO   XXX...   OOOOOOOOOOOOOOO",
"OOOOOOOOOOOOOOO   XXX...   OOOOOOOOOOOOOOO",
"OOOOOOOOOOOOOOO   ooo...   OOOOOOOOOOOOOOO",
"OOOOOOOOOOOOOOO   ooo...   OOOOOOOOOOOOOOO",
"OOOOOOOOOOOOOOO   ooo...   OOOOOOOOOOOOOOO",
"OOOOOO         OOO      OOO         OOOOOO",
"OOOOOO         OOO      OOO         OOOOOO",
"OOOOOO         OOO      OOO         OOOOOO",
"OOO   XXXoooooo   OOOOOO   XXX......   OOO",
"OOO   XXXoooooo   OOOOOO   XXX......   OOO",
"OOO   XXXoooooo   OOOOOO   XXX......   OOO",
"OOO   oooOOO   OOO      ooo   OOO...   OOO",
"OOO   oooOOO   OOO      ooo   OOO...   OOO",
"OOO   oooOOO   OOO      ooo   OOO...   OOO",
"OOO   oooOOOOOO   oooooo   OOOOOO...   OOO",
"OOO   oooOOOOOO   oooooo   OOOOOO...   OOO",
"OOO   oooOOOOOO   oooooo   OOOOOO...   OOO",
"OOO   ooo   OOOOOOoooXXXOOOOOO   ...   OOO",
"OOO   ooo   OOOOOOoooXXXOOOOOO   ...   OOO",
"OOO   ooo   OOOOOOoooXXXOOOOOO   ...   OOO",
"OOOOOO   ooo      oooXXX      ...   OOOOOO",
"OOOOOO   ooo      oooXXX      ...   OOOOOO",
"OOOOOO   ooo      oooXXX      ...   OOOOOO",
"OOOOOO   ooooooXXXoooXXXXXX......   OOOOOO",
"OOOOOO   ooooooXXXoooXXXXXX......   OOOOOO",
"OOOOOO   ooooooXXXoooXXXXXX......   OOOOOO",
"OOOOOOOOO   ooooooXXXXXX......   OOOOOOOOO",
"OOOOOOOOO   ooooooXXXXXX......   OOOOOOOOO",
"OOOOOOOOO   ooooooXXXXXX......   OOOOOOOOO",
"OOOOOOOOO                        OOOOOOOOO",
"OOOOOOOOO                        OOOOOOOOO",
"OOOOOOOOO                        OOOOOOOOO",
"OOOOOO   ooooooXXXXXXXXX.........   OOOOOO",
"OOOOOO   ooooooXXXXXXXXX.........   OOOOOO",
"OOOOOO   ooooooXXXXXXXXX.........   OOOOOO",
"OOOOOO                              OOOOOO",
"OOOOOO                              OOOOOO",
"OOOOOO                              OOOOOO"
};
