/* XPM */
static char *result[] = {
/* columns rows colors chars-per-pixel */
"42 42 8 1 ",
"  c black",
". c gray54",
"X c gray66",
"o c gray69",
"O c gray70",
"+ c gray78",
"@ c #D5D5D5",
"# c #000000",
/* pixels */
"######         ###                  ######",
"######         ###                  ######",
"######         ###                  ######",
"######   @@@   ###   oooXXXXXX...   ######",
"######   @@@   ###   oooXXXXXX...   ######",
"######   @@@   ###   oooXXXXXX...   ######",
"######   @@@         oooOOOXXX...   ######",
"######   @@@         oooOOOXXX...   ######",
"######   @@@         oooOOOXXX...   ######",
"######   @@@++++++ooooooOOO......   ######",
"######   @@@++++++ooooooOOO......   ######",
"######   @@@++++++ooooooOOO......   ######",
"######                              ######",
"######                              ######",
"######                              ######",
"#########   ++++++ooooooXXX...   #########",
"#########   ++++++ooooooXXX...   #########",
"#########   ++++++ooooooXXX...   #########",
"############                  ############",
"############                  ############",
"############                  ############",
"############   +++XXXXXX...   ############",
"############   +++XXXXXX...   ############",
"############   +++XXXXXX...   ############",
"############   +++XXXXXX...   ############",
"############   +++XXXXXX...   ############",
"############   +++XXXXXX...   ############",
"############   +++XXXXXX...   ############",
"############   +++XXXXXX...   ############",
"############   +++XXXXXX...   ############",
"#########   ++++++oooXXXXXX...   #########",
"#########   ++++++oooXXXXXX...   #########",
"#########   ++++++oooXXXXXX...   #########",
"######   ++++++OOOOOOoooXXXXXX...   ######",
"######   ++++++OOOOOOoooXXXXXX...   ######",
"######   ++++++OOOOOOoooXXXXXX...   ######",
"###   @@@+++OOOOOOOOOoooXXXXXX......   ###",
"###   @@@+++OOOOOOOOOoooXXXXXX......   ###",
"###   @@@+++OOOOOOOOOoooXXXXXX......   ###",
"###                                    ###",
"###                                    ###",
"###                                    ###"
};
