/* XPM */
static char *result[] = {
/* columns rows colors chars-per-pixel */
"42 42 6 1 ",
"  c black",
". c gray54",
"X c gray66",
"o c gray70",
"O c #D5D5D5",
"+ c #000000",
/* pixels */
"++++++++++++++++++++++++++++++++++++++++++",
"++++++++++++++++++++++++++++++++++++++++++",
"++++++++++++++++++++++++++++++++++++++++++",
"++++++++++++++++++++++++++++++++++++++++++",
"++++++++++++++++++++++++++++++++++++++++++",
"++++++++++++++++++++++++++++++++++++++++++",
"+++++++++++++++            +++++++++++++++",
"+++++++++++++++            +++++++++++++++",
"+++++++++++++++            +++++++++++++++",
"++++++++++++   OOOoooooo...   ++++++++++++",
"++++++++++++   OOOoooooo...   ++++++++++++",
"++++++++++++   OOOoooooo...   ++++++++++++",
"++++++++++++   oooXXXXXX...   ++++++++++++",
"++++++++++++   oooXXXXXX...   ++++++++++++",
"++++++++++++   oooXXXXXX...   ++++++++++++",
"++++++++++++   ooooooXXX...   ++++++++++++",
"++++++++++++   ooooooXXX...   ++++++++++++",
"++++++++++++   ooooooXXX...   ++++++++++++",
"+++++++++++++++   oooXXX   +++++++++++++++",
"+++++++++++++++   oooXXX   +++++++++++++++",
"+++++++++++++++   oooXXX   +++++++++++++++",
"++++++++++++   OOOoooXXX...   ++++++++++++",
"++++++++++++   OOOoooXXX...   ++++++++++++",
"++++++++++++   OOOoooXXX...   ++++++++++++",
"++++++++++++   OOOoooXXX...   ++++++++++++",
"++++++++++++   OOOoooXXX...   ++++++++++++",
"++++++++++++   OOOoooXXX...   ++++++++++++",
"+++++++++++++++   XXXXXX   +++++++++++++++",
"+++++++++++++++   XXXXXX   +++++++++++++++",
"+++++++++++++++   XXXXXX   +++++++++++++++",
"++++++++++++   ooooooXXX...   ++++++++++++",
"++++++++++++   ooooooXXX...   ++++++++++++",
"++++++++++++   ooooooXXX...   ++++++++++++",
"+++++++++   OOOoooXXXXXXXXX...   +++++++++",
"+++++++++   OOOoooXXXXXXXXX...   +++++++++",
"+++++++++   OOOoooXXXXXXXXX...   +++++++++",
"+++++++++   oooXXXXXXXXXXXX...   +++++++++",
"+++++++++   oooXXXXXXXXXXXX...   +++++++++",
"+++++++++   oooXXXXXXXXXXXX...   +++++++++",
"+++++++++                        +++++++++",
"+++++++++                        +++++++++",
"+++++++++                        +++++++++"
};
