/* XPM */
static char *result[] = {
/* columns rows colors chars-per-pixel */
"42 42 6 1 ",
"  c black",
". c gray54",
"X c gray66",
"o c gray78",
"O c gray86",
"+ c #FFFFFF",
/* pixels */
"++++++++++++++++++      ++++++++++++++++++",
"++++++++++++++++++      ++++++++++++++++++",
"++++++++++++++++++      ++++++++++++++++++",
"+++++++++++++++   XXX...   +++++++++++++++",
"+++++++++++++++   XXX...   +++++++++++++++",
"+++++++++++++++   XXX...   +++++++++++++++",
"+++++++++++++++   OOO...   +++++++++++++++",
"+++++++++++++++   OOO...   +++++++++++++++",
"+++++++++++++++   OOO...   +++++++++++++++",
"++++++++++++++++++      ++++++++++++++++++",
"++++++++++++++++++      ++++++++++++++++++",
"++++++++++++++++++      ++++++++++++++++++",
"+++++++++++++++   OOO...   +++++++++++++++",
"+++++++++++++++   OOO...   +++++++++++++++",
"+++++++++++++++   OOO...   +++++++++++++++",
"++++++++++++   OOOoooXXX+++   ++++++++++++",
"++++++++++++   OOOoooXXX+++   ++++++++++++",
"++++++++++++   OOOoooXXX+++   ++++++++++++",
"+++++++++   OOOoooooo+++   ...   +++++++++",
"+++++++++   OOOoooooo+++   ...   +++++++++",
"+++++++++   OOOoooooo+++   ...   +++++++++",
"+++++++++   OOOoooooo   XXX...   +++++++++",
"+++++++++   OOOoooooo   XXX...   +++++++++",
"+++++++++   OOOoooooo   XXX...   +++++++++",
"+++++++++   OOOooooooXXXXXX...   +++++++++",
"+++++++++   OOOooooooXXXXXX...   +++++++++",
"+++++++++   OOOooooooXXXXXX...   +++++++++",
"+++++++++   OOOooooooXXXXXX...   +++++++++",
"+++++++++   OOOooooooXXXXXX...   +++++++++",
"+++++++++   OOOooooooXXXXXX...   +++++++++",
"++++++++++++   ooooooXXXXXX   ++++++++++++",
"++++++++++++   ooooooXXXXXX   ++++++++++++",
"++++++++++++   ooooooXXXXXX   ++++++++++++",
"+++++++++                        +++++++++",
"+++++++++                        +++++++++",
"+++++++++                        +++++++++",
"++++++   OOOoooooooooXXX.........   ++++++",
"++++++   OOOoooooooooXXX.........   ++++++",
"++++++   OOOoooooooooXXX.........   ++++++",
"++++++                              ++++++",
"++++++                              ++++++",
"++++++                              ++++++"
};
