/* XPM */
static char *result[] = {
/* columns rows colors chars-per-pixel */
"42 42 6 1 ",
"  c black",
". c gray54",
"X c gray66",
"o c gray78",
"O c gray86",
"+ c #FFFFFF",
/* pixels */
"++++++++++++++++++      ++++++++++++++++++",
"++++++++++++++++++      ++++++++++++++++++",
"++++++++++++++++++      ++++++++++++++++++",
"+++++++++++++++   XXX...   +++++++++++++++",
"+++++++++++++++   XXX...   +++++++++++++++",
"+++++++++++++++   XXX...   +++++++++++++++",
"+++++++++++++++   ooo...   +++++++++++++++",
"+++++++++++++++   ooo...   +++++++++++++++",
"+++++++++++++++   ooo...   +++++++++++++++",
"++++++++++++++++++      ++++++++++++++++++",
"++++++++++++++++++      ++++++++++++++++++",
"++++++++++++++++++      ++++++++++++++++++",
"   ++++++++++++++++++++++++++++++++++++   ",
"   ++++++++++++++++++++++++++++++++++++   ",
"   ++++++++++++++++++++++++++++++++++++   ",
"+++      +++++++++      +++++++++      +++",
"+++      +++++++++      +++++++++      +++",
"+++      +++++++++      +++++++++      +++",
"+++   OOO   +++   oooXXX   +++   ...   +++",
"+++   OOO   +++   oooXXX   +++   ...   +++",
"+++   OOO   +++   oooXXX   +++   ...   +++",
"+++   OOOOOO   ooooooXXXXXX   ......   +++",
"+++   OOOOOO   ooooooXXXXXX   ......   +++",
"+++   OOOOOO   ooooooXXXXXX   ......   +++",
"++++++   OOOoooXXXXXXXXXXXX......   ++++++",
"++++++   OOOoooXXXXXXXXXXXX......   ++++++",
"++++++   OOOoooXXXXXXXXXXXX......   ++++++",
"++++++   OOOoooXXXXXXXXX.........   ++++++",
"++++++   OOOoooXXXXXXXXX.........   ++++++",
"++++++   OOOoooXXXXXXXXX.........   ++++++",
"+++++++++   oooXXXXXX.........   +++++++++",
"+++++++++   oooXXXXXX.........   +++++++++",
"+++++++++   oooXXXXXX.........   +++++++++",
"+++++++++                        +++++++++",
"+++++++++                        +++++++++",
"+++++++++                        +++++++++",
"++++++   OOOoooXXXXXXXXX.........   ++++++",
"++++++   OOOoooXXXXXXXXX.........   ++++++",
"++++++   OOOoooXXXXXXXXX.........   ++++++",
"++++++                              ++++++",
"++++++                              ++++++",
"++++++                              ++++++"
};
